<?xml version="1.0" encoding="UTF-8"?>
<svg id="Layer_2" data-name="Layer 2" xmlns="http://www.w3.org/2000/svg" viewBox="0 0 486.13 299.27">
  <g id="svg1">
    <g>
      <path d="M227.31,0c-10.48,0-16.81,1.11-16.81,1.11,0,0-100,10.61-133.1,100.96-47.46,129.56,57.8,197.2,57.81,197.2,0,0-71.97-102.59,17.39-192.22,34.02-34.13,69.77-39.41,95.27-39.41,5.9,0,11.25.28,15.91.56,94.39,5.54,125.89,99.49,125.89,99.49,0,0,12.37-70.39-57.38-129.06C292.63,5.26,250.13,0,227.31,0h0Z"/>
      <path d="M205.02,209.19h0,0ZM205.02,209.19s-21.39,14.65-43.4,27.41c-11.36,6.58-34.95,16.69-34.95,16.69l16.11,26.48,29.88-14.36c9.01-14.98,32.37-56.21,32.37-56.21h0Z"/>
      <polygon points="256.06 145.68 231.98 183.93 189.83 174.51 217.6 207.79 194.17 244.24 234.84 228.77 263.2 263.15 260.96 218.89 303.05 203.19 259.37 191.57 256.06 145.68 256.06 145.68"/>
      <path d="M343.7,118.48s-25.76,10.31-38.64,17.75c-12.58,7.26-37.73,26.34-37.73,26.34l1.59,21.93,13.64,4.1s23.87-16.96,36.56-24.3c12.73-7.36,41.64-20.09,41.64-20.09l-17.06-25.74h0Z"/>
      <path d="M227.22,184.06h0,0M217.87,197.15h0,0M151.11,122.7s-6.62,5.91-9.05,9.23c-3.34,4.57-7.63,14.59-7.63,14.59l29.86,15.27s20.58,3.91,30.79,6.25c10.2,2.34,30.41,7.77,30.41,7.77l2.8-5.59s-25.5-20.02-38.97-28.31c-12.25-7.55-38.2-19.21-38.2-19.21h0Z"/>
      <path d="M60.81,114.92h0,0ZM60.81,114.92s-35.09,13.09-48.74,38.18C-2.37,179.66.17,207.56.17,207.56c0,0,5.12,35.34,26.18,53.24,28.76,24.44,51.74,28.05,62.8,28.05,4.62,0,7.16-.63,7.16-.63,0,0-7.13-9.74-9.77-15.14-2.48-5.08-5.58-16.01-5.58-16.01,0,0-42.52-7.83-49.61-44.85-8.3-43.29,23.83-62.16,23.83-62.16,0,0,.68-12.18,1.56-17.66,1-6.23,4.08-17.47,4.08-17.47h0Z"/>
      <path d="M399.93,109.44c-5.29,0-8.44.67-8.44.67l13.21,29.24s28.01,6.54,40.87,23.38c15.09,19.76,10.95,45.71,10.95,45.71,0,0-6.92,26.96-24.05,37.97-17.18,11.04-34.48,12.64-43.06,12.64-3.49,0-5.53-.26-5.53-.26,0,0-25.7-4.25-46.15-14.53-14.97-7.52-42.82-26.32-42.82-26.32l-22.34,8.97.75,13.03s31.92,19.72,48.13,28.08c11.5,5.93,34.99,14.8,34.99,14.8,0,0,1.51,2.95,36.53,5.53.92.07,1.88.1,2.85.1,13.4,0,31.33-5.94,31.33-5.94,0,0,24.9-7.5,44.52-35.51,14.97-21.38,13.93-45.29,13.93-45.29,0,0,6-26.24-22.71-60.1-23.86-28.13-49.92-32.19-62.96-32.19h0Z"/>
    </g>
  </g>
</svg>